<svg xmlns="http://www.w3.org/2000/svg" viewBox="0 0 64 64" fill="none">
  <defs>
    <linearGradient id="luma-a" x1="10" y1="8" x2="53" y2="57" gradientUnits="userSpaceOnUse">
      <stop stop-color="#6EE7FF"/>
      <stop offset=".48" stop-color="#3B82F6"/>
      <stop offset="1" stop-color="#6D5DFB"/>
    </linearGradient>
    <linearGradient id="luma-b" x1="17" y1="14" x2="46" y2="49" gradientUnits="userSpaceOnUse">
      <stop stop-color="#E0F2FE"/>
      <stop offset="1" stop-color="#93C5FD"/>
    </linearGradient>
    <filter id="luma-glow" x="-25%" y="-25%" width="150%" height="150%">
      <feGaussianBlur stdDeviation="2.4" result="blur"/>
      <feColorMatrix in="blur" values="1 0 0 0 0.23 0 1 0 0 0.51 0 0 1 0 0.96 0 0 0 .45 0"/>
      <feBlend in="SourceGraphic"/>
    </filter>
  </defs>
  <path d="M32 3.5 56.7 17.8v28.4L32 60.5 7.3 46.2V17.8L32 3.5Z" fill="#071426"/>
  <path d="M32 7.5 53.2 19.8v24.4L32 56.5 10.8 44.2V19.8L32 7.5Z" fill="url(#luma-a)" opacity=".22"/>
  <path d="M21 16.5h8.2v23.2H44V48H21V16.5Z" fill="url(#luma-b)" filter="url(#luma-glow)"/>
  <path d="m14.5 22 8.7-5v5.3l-4.1 2.4v14.6l12.7 7.3 4.3-2.5 4.6 2.7-8.9 5.2-17.3-10V22Z" fill="url(#luma-a)" opacity=".9"/>
  <path d="m42.8 12 6.7 3.9v7.7l-3.4-2v-3.7l-3.3-1.9v-4Z" fill="#67E8F9"/>
</svg>
